# xmcd CD database file
#
# Track frame offsets:
#	150
#	22843
#	72566
#	107930
#	146075
#	162503
#
# Disc length: 2697 seconds
#
# Revision: 0
# Processed by: cddbd v1.5.2PL0 Copyright (c) Steve Scherf et al.
# Submitted via: CDex 1.70beta2
#
DISCID=540a8706
DTITLE=B.B. KING With Eric Clapton - Diana Ross - Atlanta 1979 (2
DYEAR=1979
DGENRE=Blues
TTITLE0=I'm Noy Me Without You
TTITLE1=The Thrill Is Gone
TTITLE2=Hold On(Bonus)
TTITLE3=''Unknown''
TTITLE4=Jam 1
TTITLE5=Jam 2
EXTD=YEAR: 1979
EXTT0=
EXTT1=
EXTT2=
EXTT3=
EXTT4=
EXTT5=
PLAYORDER=
